M48
; DRILL file {KiCad (6.0.4-0)} date 2022 April 23, Saturday 01:38:22
; FORMAT={-:-/ absolute / metric / decimal}
; #@! TF.CreationDate,2022-04-23T01:38:22+09:00
; #@! TF.GenerationSoftware,Kicad,Pcbnew,(6.0.4-0)
; #@! TF.FileFunction,Plated,1,2,PTH
FMAT,2
METRIC
; #@! TA.AperFunction,Plated,PTH,ViaDrill
T1C0.400
; #@! TA.AperFunction,Plated,PTH,ComponentDrill
T2C1.000
; #@! TA.AperFunction,Plated,PTH,ComponentDrill
T3C1.200
%
G90
G05
T1
X13.462Y-77.47
X13.716Y-90.678
X13.716Y-103.378
X14.478Y-151.435
X14.732Y-28.702
X14.732Y-44.45
X14.732Y-60.706
X14.732Y-115.316
X16.51Y-121.158
X16.51Y-144.78
X18.595Y-119.687
X20.066Y-118.364
X22.352Y-147.066
X23.675Y-120.957
X26.215Y-121.211
X26.215Y-144.727
X28.194Y-28.448
X28.755Y-121.211
X28.755Y-144.727
X29.718Y-152.4
X31.295Y-121.211
X31.295Y-144.727
X33.835Y-121.211
X33.835Y-144.727
X35.56Y-44.45
X35.56Y-60.452
X36.375Y-121.211
X36.375Y-144.727
X38.915Y-121.211
X38.915Y-144.727
X41.455Y-121.211
X41.455Y-144.727
X43.995Y-121.211
X45.816Y-142.398
X45.974Y-152.4
X48.356Y-127.92
X48.356Y-130.46
X48.356Y-133.0
X48.356Y-135.54
X48.356Y-138.08
X49.53Y-57.912
X62.23Y-142.494
X68.072Y-58.166
X78.74Y-142.494
X86.106Y-57.15
X94.742Y-50.546
X95.25Y-142.494
X102.108Y-40.132
X108.966Y-28.702
X111.76Y-142.494
X116.332Y-39.116
X122.682Y-28.55
X122.682Y-59.182
X122.682Y-92.964
X123.19Y-75.946
X124.206Y-118.364
X128.27Y-146.812
X131.064Y-108.204
X140.462Y-125.222
X144.78Y-150.978
X151.638Y-137.922
T3
X21.633Y-53.3
X24.3Y-64.92
X24.3Y-73.18
X24.3Y-83.97
X24.3Y-92.23
X24.3Y-103.02
X24.3Y-111.28
X25.762Y-56.05
X27.05Y-69.05
X27.05Y-88.1
X27.05Y-107.15
X29.892Y-53.3
X35.92Y-72.35
X35.92Y-91.4
X35.92Y-110.45
X40.05Y-75.1
X40.05Y-94.15
X40.05Y-113.2
X44.18Y-72.35
X44.18Y-91.4
X44.18Y-110.45
X54.97Y-69.969
X54.97Y-89.019
X54.97Y-108.069
X59.1Y-72.719
X59.1Y-91.769
X59.1Y-110.819
X63.23Y-69.969
X63.23Y-89.019
X63.23Y-108.069
X69.52Y-129.5
X73.65Y-132.25
X74.02Y-67.587
X74.02Y-86.638
X74.02Y-105.688
X77.78Y-129.5
X78.15Y-70.337
X78.15Y-89.388
X78.15Y-108.438
X82.28Y-67.587
X82.28Y-86.638
X82.28Y-105.688
X88.57Y-129.5
X92.7Y-132.25
X93.07Y-69.969
X93.07Y-89.019
X93.07Y-108.069
X96.83Y-129.5
X97.2Y-72.719
X97.2Y-91.769
X97.2Y-110.819
X101.33Y-69.969
X101.33Y-89.019
X101.33Y-108.069
X108.197Y-127.242
X110.028Y-131.854
X110.2Y-66.669
X110.2Y-85.719
X110.2Y-104.769
X111.746Y-123.774
X112.95Y-62.539
X112.95Y-70.799
X112.95Y-81.589
X112.95Y-89.849
X112.95Y-100.639
X112.95Y-108.899
X133.818Y-135.775
X134.135Y-140.727
X138.265Y-133.573
T2
G00X112.4Y-46.737
M15
G01X111.9Y-46.737
M16
G05
G00X112.4Y-49.188
M15
G01X111.9Y-49.188
M16
G05
G00X113.9Y-44.987
M15
G01X113.4Y-44.987
M16
G05
G00X113.9Y-50.938
M15
G01X113.4Y-50.938
M16
G05
G00X117.9Y-44.987
M15
G01X117.4Y-44.987
M16
G05
G00X117.9Y-50.938
M15
G01X117.4Y-50.938
M16
G05
G00X120.9Y-44.987
M15
G01X120.4Y-44.987
M16
G05
G00X120.9Y-50.938
M15
G01X120.4Y-50.938
M16
G05
T0
M30
