%TF.GenerationSoftware,KiCad,Pcbnew,(6.0.4-0)*%
%TF.CreationDate,2022-04-23T01:33:06+09:00*%
%TF.ProjectId,diodeless,64696f64-656c-4657-9373-2e6b69636164,rev?*%
%TF.SameCoordinates,Original*%
%TF.FileFunction,Legend,Top*%
%TF.FilePolarity,Positive*%
%FSLAX46Y46*%
G04 Gerber Fmt 4.6, Leading zero omitted, Abs format (unit mm)*
G04 Created by KiCad (PCBNEW (6.0.4-0)) date 2022-04-23 01:33:06*
%MOMM*%
%LPD*%
G01*
G04 APERTURE LIST*
%ADD10C,0.300000*%
%ADD11C,0.150000*%
%ADD12C,0.381000*%
%ADD13C,1.200000*%
%ADD14O,2.500000X1.700000*%
G04 APERTURE END LIST*
D10*
X20187828Y-132223171D02*
X20016399Y-132308885D01*
X19673542Y-132308885D01*
X19502114Y-132223171D01*
X19416399Y-132051742D01*
X19416399Y-131366028D01*
X19502114Y-131194600D01*
X19673542Y-131108885D01*
X20016399Y-131108885D01*
X20187828Y-131194600D01*
X20273542Y-131366028D01*
X20273542Y-131537457D01*
X19416399Y-131708885D01*
X20959257Y-132223171D02*
X21130685Y-132308885D01*
X21473542Y-132308885D01*
X21644971Y-132223171D01*
X21730685Y-132051742D01*
X21730685Y-131966028D01*
X21644971Y-131794600D01*
X21473542Y-131708885D01*
X21216399Y-131708885D01*
X21044971Y-131623171D01*
X20959257Y-131451742D01*
X20959257Y-131366028D01*
X21044971Y-131194600D01*
X21216399Y-131108885D01*
X21473542Y-131108885D01*
X21644971Y-131194600D01*
X23273542Y-132223171D02*
X23102114Y-132308885D01*
X22759257Y-132308885D01*
X22587828Y-132223171D01*
X22502114Y-132137457D01*
X22416399Y-131966028D01*
X22416399Y-131451742D01*
X22502114Y-131280314D01*
X22587828Y-131194600D01*
X22759257Y-131108885D01*
X23102114Y-131108885D01*
X23273542Y-131194600D01*
X24816399Y-132308885D02*
X24816399Y-130508885D01*
X24816399Y-132223171D02*
X24644971Y-132308885D01*
X24302114Y-132308885D01*
X24130685Y-132223171D01*
X24044971Y-132137457D01*
X23959257Y-131966028D01*
X23959257Y-131451742D01*
X24044971Y-131280314D01*
X24130685Y-131194600D01*
X24302114Y-131108885D01*
X24644971Y-131108885D01*
X24816399Y-131194600D01*
X25673542Y-131623171D02*
X27044971Y-131623171D01*
X28673542Y-132308885D02*
X28673542Y-130508885D01*
X28673542Y-132223171D02*
X28502114Y-132308885D01*
X28159257Y-132308885D01*
X27987828Y-132223171D01*
X27902114Y-132137457D01*
X27816400Y-131966028D01*
X27816400Y-131451742D01*
X27902114Y-131280314D01*
X27987828Y-131194600D01*
X28159257Y-131108885D01*
X28502114Y-131108885D01*
X28673542Y-131194600D01*
X29530685Y-132308885D02*
X29530685Y-131108885D01*
X29530685Y-130508885D02*
X29444971Y-130594600D01*
X29530685Y-130680314D01*
X29616400Y-130594600D01*
X29530685Y-130508885D01*
X29530685Y-130680314D01*
X30644971Y-132308885D02*
X30473542Y-132223171D01*
X30387828Y-132137457D01*
X30302114Y-131966028D01*
X30302114Y-131451742D01*
X30387828Y-131280314D01*
X30473542Y-131194600D01*
X30644971Y-131108885D01*
X30902114Y-131108885D01*
X31073542Y-131194600D01*
X31159257Y-131280314D01*
X31244971Y-131451742D01*
X31244971Y-131966028D01*
X31159257Y-132137457D01*
X31073542Y-132223171D01*
X30902114Y-132308885D01*
X30644971Y-132308885D01*
X32787828Y-132308885D02*
X32787828Y-130508885D01*
X32787828Y-132223171D02*
X32616400Y-132308885D01*
X32273542Y-132308885D01*
X32102114Y-132223171D01*
X32016400Y-132137457D01*
X31930685Y-131966028D01*
X31930685Y-131451742D01*
X32016400Y-131280314D01*
X32102114Y-131194600D01*
X32273542Y-131108885D01*
X32616400Y-131108885D01*
X32787828Y-131194600D01*
X34330685Y-132223171D02*
X34159257Y-132308885D01*
X33816400Y-132308885D01*
X33644971Y-132223171D01*
X33559257Y-132051742D01*
X33559257Y-131366028D01*
X33644971Y-131194600D01*
X33816400Y-131108885D01*
X34159257Y-131108885D01*
X34330685Y-131194600D01*
X34416400Y-131366028D01*
X34416400Y-131537457D01*
X33559257Y-131708885D01*
X35444971Y-132308885D02*
X35273542Y-132223171D01*
X35187828Y-132051742D01*
X35187828Y-130508885D01*
X36816400Y-132223171D02*
X36644971Y-132308885D01*
X36302114Y-132308885D01*
X36130685Y-132223171D01*
X36044971Y-132051742D01*
X36044971Y-131366028D01*
X36130685Y-131194600D01*
X36302114Y-131108885D01*
X36644971Y-131108885D01*
X36816400Y-131194600D01*
X36902114Y-131366028D01*
X36902114Y-131537457D01*
X36044971Y-131708885D01*
X37587828Y-132223171D02*
X37759257Y-132308885D01*
X38102114Y-132308885D01*
X38273542Y-132223171D01*
X38359257Y-132051742D01*
X38359257Y-131966028D01*
X38273542Y-131794600D01*
X38102114Y-131708885D01*
X37844971Y-131708885D01*
X37673542Y-131623171D01*
X37587828Y-131451742D01*
X37587828Y-131366028D01*
X37673542Y-131194600D01*
X37844971Y-131108885D01*
X38102114Y-131108885D01*
X38273542Y-131194600D01*
X39044971Y-132223171D02*
X39216400Y-132308885D01*
X39559257Y-132308885D01*
X39730685Y-132223171D01*
X39816400Y-132051742D01*
X39816400Y-131966028D01*
X39730685Y-131794600D01*
X39559257Y-131708885D01*
X39302114Y-131708885D01*
X39130685Y-131623171D01*
X39044971Y-131451742D01*
X39044971Y-131366028D01*
X39130685Y-131194600D01*
X39302114Y-131108885D01*
X39559257Y-131108885D01*
X39730685Y-131194600D01*
X27044971Y-134006885D02*
X27473542Y-135206885D01*
X27902114Y-134006885D01*
X29530685Y-135206885D02*
X28502114Y-135206885D01*
X29016400Y-135206885D02*
X29016400Y-133406885D01*
X28844971Y-133664028D01*
X28673542Y-133835457D01*
X28502114Y-133921171D01*
X30302114Y-135035457D02*
X30387828Y-135121171D01*
X30302114Y-135206885D01*
X30216400Y-135121171D01*
X30302114Y-135035457D01*
X30302114Y-135206885D01*
X31502114Y-133406885D02*
X31673542Y-133406885D01*
X31844971Y-133492600D01*
X31930685Y-133578314D01*
X32016400Y-133749742D01*
X32102114Y-134092600D01*
X32102114Y-134521171D01*
X32016400Y-134864028D01*
X31930685Y-135035457D01*
X31844971Y-135121171D01*
X31673542Y-135206885D01*
X31502114Y-135206885D01*
X31330685Y-135121171D01*
X31244971Y-135035457D01*
X31159257Y-134864028D01*
X31073542Y-134521171D01*
X31073542Y-134092600D01*
X31159257Y-133749742D01*
X31244971Y-133578314D01*
X31330685Y-133492600D01*
X31502114Y-133406885D01*
D11*
%TO.C,U1*%
X21466904Y-127088095D02*
X21085952Y-127354761D01*
X21466904Y-127545238D02*
X20666904Y-127545238D01*
X20666904Y-127240476D01*
X20705000Y-127164285D01*
X20743095Y-127126190D01*
X20819285Y-127088095D01*
X20933571Y-127088095D01*
X21009761Y-127126190D01*
X21047857Y-127164285D01*
X21085952Y-127240476D01*
X21085952Y-127545238D01*
X21428809Y-126783333D02*
X21466904Y-126669047D01*
X21466904Y-126478571D01*
X21428809Y-126402380D01*
X21390714Y-126364285D01*
X21314523Y-126326190D01*
X21238333Y-126326190D01*
X21162142Y-126364285D01*
X21124047Y-126402380D01*
X21085952Y-126478571D01*
X21047857Y-126630952D01*
X21009761Y-126707142D01*
X20971666Y-126745238D01*
X20895476Y-126783333D01*
X20819285Y-126783333D01*
X20743095Y-126745238D01*
X20705000Y-126707142D01*
X20666904Y-126630952D01*
X20666904Y-126440476D01*
X20705000Y-126326190D01*
X20666904Y-126097619D02*
X20666904Y-125640476D01*
X21466904Y-125869047D02*
X20666904Y-125869047D01*
X43599714Y-133133333D02*
X43637809Y-133171428D01*
X43675904Y-133285714D01*
X43675904Y-133361904D01*
X43637809Y-133476190D01*
X43561619Y-133552380D01*
X43485428Y-133590476D01*
X43333047Y-133628571D01*
X43218761Y-133628571D01*
X43066380Y-133590476D01*
X42990190Y-133552380D01*
X42914000Y-133476190D01*
X42875904Y-133361904D01*
X42875904Y-133285714D01*
X42914000Y-133171428D01*
X42952095Y-133133333D01*
X42875904Y-132866666D02*
X42875904Y-132333333D01*
X43675904Y-132676190D01*
X43337000Y-138037333D02*
X43370333Y-137937333D01*
X43403666Y-137904000D01*
X43470333Y-137870666D01*
X43570333Y-137870666D01*
X43637000Y-137904000D01*
X43670333Y-137937333D01*
X43703666Y-138004000D01*
X43703666Y-138270666D01*
X43003666Y-138270666D01*
X43003666Y-138037333D01*
X43037000Y-137970666D01*
X43070333Y-137937333D01*
X43137000Y-137904000D01*
X43203666Y-137904000D01*
X43270333Y-137937333D01*
X43303666Y-137970666D01*
X43337000Y-138037333D01*
X43337000Y-138270666D01*
X43003666Y-137637333D02*
X43003666Y-137170666D01*
X43703666Y-137470666D01*
X26576904Y-139940476D02*
X25776904Y-139940476D01*
X25776904Y-139750000D01*
X25815000Y-139635714D01*
X25891190Y-139559523D01*
X25967380Y-139521428D01*
X26119761Y-139483333D01*
X26234047Y-139483333D01*
X26386428Y-139521428D01*
X26462619Y-139559523D01*
X26538809Y-139635714D01*
X26576904Y-139750000D01*
X26576904Y-139940476D01*
X26576904Y-138721428D02*
X26576904Y-139178571D01*
X26576904Y-138950000D02*
X25776904Y-138950000D01*
X25891190Y-139026190D01*
X25967380Y-139102380D01*
X26005476Y-139178571D01*
X34120714Y-139483333D02*
X34158809Y-139521428D01*
X34196904Y-139635714D01*
X34196904Y-139711904D01*
X34158809Y-139826190D01*
X34082619Y-139902380D01*
X34006428Y-139940476D01*
X33854047Y-139978571D01*
X33739761Y-139978571D01*
X33587380Y-139940476D01*
X33511190Y-139902380D01*
X33435000Y-139826190D01*
X33396904Y-139711904D01*
X33396904Y-139635714D01*
X33435000Y-139521428D01*
X33473095Y-139483333D01*
X33396904Y-138797619D02*
X33396904Y-138950000D01*
X33435000Y-139026190D01*
X33473095Y-139064285D01*
X33587380Y-139140476D01*
X33739761Y-139178571D01*
X34044523Y-139178571D01*
X34120714Y-139140476D01*
X34158809Y-139102380D01*
X34196904Y-139026190D01*
X34196904Y-138873809D01*
X34158809Y-138797619D01*
X34120714Y-138759523D01*
X34044523Y-138721428D01*
X33854047Y-138721428D01*
X33777857Y-138759523D01*
X33739761Y-138797619D01*
X33701666Y-138873809D01*
X33701666Y-139026190D01*
X33739761Y-139102380D01*
X33777857Y-139140476D01*
X33854047Y-139178571D01*
X38857857Y-126973809D02*
X38895952Y-126859523D01*
X38934047Y-126821428D01*
X39010238Y-126783333D01*
X39124523Y-126783333D01*
X39200714Y-126821428D01*
X39238809Y-126859523D01*
X39276904Y-126935714D01*
X39276904Y-127240476D01*
X38476904Y-127240476D01*
X38476904Y-126973809D01*
X38515000Y-126897619D01*
X38553095Y-126859523D01*
X38629285Y-126821428D01*
X38705476Y-126821428D01*
X38781666Y-126859523D01*
X38819761Y-126897619D01*
X38857857Y-126973809D01*
X38857857Y-127240476D01*
X38476904Y-126516666D02*
X38476904Y-126021428D01*
X38781666Y-126288095D01*
X38781666Y-126173809D01*
X38819761Y-126097619D01*
X38857857Y-126059523D01*
X38934047Y-126021428D01*
X39124523Y-126021428D01*
X39200714Y-126059523D01*
X39238809Y-126097619D01*
X39276904Y-126173809D01*
X39276904Y-126402380D01*
X39238809Y-126478571D01*
X39200714Y-126516666D01*
X23236904Y-127716666D02*
X24036904Y-127450000D01*
X23236904Y-127183333D01*
X23960714Y-126459523D02*
X23998809Y-126497619D01*
X24036904Y-126611904D01*
X24036904Y-126688095D01*
X23998809Y-126802380D01*
X23922619Y-126878571D01*
X23846428Y-126916666D01*
X23694047Y-126954761D01*
X23579761Y-126954761D01*
X23427380Y-126916666D01*
X23351190Y-126878571D01*
X23275000Y-126802380D01*
X23236904Y-126688095D01*
X23236904Y-126611904D01*
X23275000Y-126497619D01*
X23313095Y-126459523D01*
X23960714Y-125659523D02*
X23998809Y-125697619D01*
X24036904Y-125811904D01*
X24036904Y-125888095D01*
X23998809Y-126002380D01*
X23922619Y-126078571D01*
X23846428Y-126116666D01*
X23694047Y-126154761D01*
X23579761Y-126154761D01*
X23427380Y-126116666D01*
X23351190Y-126078571D01*
X23275000Y-126002380D01*
X23236904Y-125888095D01*
X23236904Y-125811904D01*
X23275000Y-125697619D01*
X23313095Y-125659523D01*
X33777857Y-126916666D02*
X33777857Y-127183333D01*
X34196904Y-127183333D02*
X33396904Y-127183333D01*
X33396904Y-126802380D01*
X33396904Y-126573809D02*
X33396904Y-126040476D01*
X34196904Y-126383333D01*
X29116904Y-139940476D02*
X28316904Y-139940476D01*
X28316904Y-139750000D01*
X28355000Y-139635714D01*
X28431190Y-139559523D01*
X28507380Y-139521428D01*
X28659761Y-139483333D01*
X28774047Y-139483333D01*
X28926428Y-139521428D01*
X29002619Y-139559523D01*
X29078809Y-139635714D01*
X29116904Y-139750000D01*
X29116904Y-139940476D01*
X28316904Y-138988095D02*
X28316904Y-138911904D01*
X28355000Y-138835714D01*
X28393095Y-138797619D01*
X28469285Y-138759523D01*
X28621666Y-138721428D01*
X28812142Y-138721428D01*
X28964523Y-138759523D01*
X29040714Y-138797619D01*
X29078809Y-138835714D01*
X29116904Y-138911904D01*
X29116904Y-138988095D01*
X29078809Y-139064285D01*
X29040714Y-139102380D01*
X28964523Y-139140476D01*
X28812142Y-139178571D01*
X28621666Y-139178571D01*
X28469285Y-139140476D01*
X28393095Y-139102380D01*
X28355000Y-139064285D01*
X28316904Y-138988095D01*
X26157857Y-126916666D02*
X26157857Y-127183333D01*
X26576904Y-127183333D02*
X25776904Y-127183333D01*
X25776904Y-126802380D01*
X26043571Y-126154761D02*
X26576904Y-126154761D01*
X25738809Y-126345238D02*
X26310238Y-126535714D01*
X26310238Y-126040476D01*
X36736904Y-139940476D02*
X35936904Y-139940476D01*
X35936904Y-139750000D01*
X35975000Y-139635714D01*
X36051190Y-139559523D01*
X36127380Y-139521428D01*
X36279761Y-139483333D01*
X36394047Y-139483333D01*
X36546428Y-139521428D01*
X36622619Y-139559523D01*
X36698809Y-139635714D01*
X36736904Y-139750000D01*
X36736904Y-139940476D01*
X35936904Y-139216666D02*
X35936904Y-138683333D01*
X36736904Y-139026190D01*
X41397857Y-139673809D02*
X41435952Y-139559523D01*
X41474047Y-139521428D01*
X41550238Y-139483333D01*
X41664523Y-139483333D01*
X41740714Y-139521428D01*
X41778809Y-139559523D01*
X41816904Y-139635714D01*
X41816904Y-139940476D01*
X41016904Y-139940476D01*
X41016904Y-139673809D01*
X41055000Y-139597619D01*
X41093095Y-139559523D01*
X41169285Y-139521428D01*
X41245476Y-139521428D01*
X41321666Y-139559523D01*
X41359761Y-139597619D01*
X41397857Y-139673809D01*
X41397857Y-139940476D01*
X41283571Y-138797619D02*
X41816904Y-138797619D01*
X40978809Y-138988095D02*
X41550238Y-139178571D01*
X41550238Y-138683333D01*
X36317857Y-126973809D02*
X36355952Y-126859523D01*
X36394047Y-126821428D01*
X36470238Y-126783333D01*
X36584523Y-126783333D01*
X36660714Y-126821428D01*
X36698809Y-126859523D01*
X36736904Y-126935714D01*
X36736904Y-127240476D01*
X35936904Y-127240476D01*
X35936904Y-126973809D01*
X35975000Y-126897619D01*
X36013095Y-126859523D01*
X36089285Y-126821428D01*
X36165476Y-126821428D01*
X36241666Y-126859523D01*
X36279761Y-126897619D01*
X36317857Y-126973809D01*
X36317857Y-127240476D01*
X36736904Y-126021428D02*
X36736904Y-126478571D01*
X36736904Y-126250000D02*
X35936904Y-126250000D01*
X36051190Y-126326190D01*
X36127380Y-126402380D01*
X36165476Y-126478571D01*
X38857857Y-139902380D02*
X38857857Y-139635714D01*
X39276904Y-139521428D02*
X39276904Y-139902380D01*
X38476904Y-139902380D01*
X38476904Y-139521428D01*
X38476904Y-138835714D02*
X38476904Y-138988095D01*
X38515000Y-139064285D01*
X38553095Y-139102380D01*
X38667380Y-139178571D01*
X38819761Y-139216666D01*
X39124523Y-139216666D01*
X39200714Y-139178571D01*
X39238809Y-139140476D01*
X39276904Y-139064285D01*
X39276904Y-138911904D01*
X39238809Y-138835714D01*
X39200714Y-138797619D01*
X39124523Y-138759523D01*
X38934047Y-138759523D01*
X38857857Y-138797619D01*
X38819761Y-138835714D01*
X38781666Y-138911904D01*
X38781666Y-139064285D01*
X38819761Y-139140476D01*
X38857857Y-139178571D01*
X38934047Y-139216666D01*
X28697857Y-126916666D02*
X28697857Y-127183333D01*
X29116904Y-127183333D02*
X28316904Y-127183333D01*
X28316904Y-126802380D01*
X28316904Y-126116666D02*
X28316904Y-126497619D01*
X28697857Y-126535714D01*
X28659761Y-126497619D01*
X28621666Y-126421428D01*
X28621666Y-126230952D01*
X28659761Y-126154761D01*
X28697857Y-126116666D01*
X28774047Y-126078571D01*
X28964523Y-126078571D01*
X29040714Y-126116666D01*
X29078809Y-126154761D01*
X29116904Y-126230952D01*
X29116904Y-126421428D01*
X29078809Y-126497619D01*
X29040714Y-126535714D01*
X20735000Y-139959523D02*
X20696904Y-140035714D01*
X20696904Y-140150000D01*
X20735000Y-140264285D01*
X20811190Y-140340476D01*
X20887380Y-140378571D01*
X21039761Y-140416666D01*
X21154047Y-140416666D01*
X21306428Y-140378571D01*
X21382619Y-140340476D01*
X21458809Y-140264285D01*
X21496904Y-140150000D01*
X21496904Y-140073809D01*
X21458809Y-139959523D01*
X21420714Y-139921428D01*
X21154047Y-139921428D01*
X21154047Y-140073809D01*
X21496904Y-139578571D02*
X20696904Y-139578571D01*
X21496904Y-139121428D01*
X20696904Y-139121428D01*
X21496904Y-138740476D02*
X20696904Y-138740476D01*
X20696904Y-138550000D01*
X20735000Y-138435714D01*
X20811190Y-138359523D01*
X20887380Y-138321428D01*
X21039761Y-138283333D01*
X21154047Y-138283333D01*
X21306428Y-138321428D01*
X21382619Y-138359523D01*
X21458809Y-138435714D01*
X21496904Y-138550000D01*
X21496904Y-138740476D01*
X43675904Y-136130476D02*
X42875904Y-136130476D01*
X42875904Y-135940000D01*
X42914000Y-135825714D01*
X42990190Y-135749523D01*
X43066380Y-135711428D01*
X43218761Y-135673333D01*
X43333047Y-135673333D01*
X43485428Y-135711428D01*
X43561619Y-135749523D01*
X43637809Y-135825714D01*
X43675904Y-135940000D01*
X43675904Y-136130476D01*
X42875904Y-134949523D02*
X42875904Y-135330476D01*
X43256857Y-135368571D01*
X43218761Y-135330476D01*
X43180666Y-135254285D01*
X43180666Y-135063809D01*
X43218761Y-134987619D01*
X43256857Y-134949523D01*
X43333047Y-134911428D01*
X43523523Y-134911428D01*
X43599714Y-134949523D01*
X43637809Y-134987619D01*
X43675904Y-135063809D01*
X43675904Y-135254285D01*
X43637809Y-135330476D01*
X43599714Y-135368571D01*
X23275000Y-139959523D02*
X23236904Y-140035714D01*
X23236904Y-140150000D01*
X23275000Y-140264285D01*
X23351190Y-140340476D01*
X23427380Y-140378571D01*
X23579761Y-140416666D01*
X23694047Y-140416666D01*
X23846428Y-140378571D01*
X23922619Y-140340476D01*
X23998809Y-140264285D01*
X24036904Y-140150000D01*
X24036904Y-140073809D01*
X23998809Y-139959523D01*
X23960714Y-139921428D01*
X23694047Y-139921428D01*
X23694047Y-140073809D01*
X24036904Y-139578571D02*
X23236904Y-139578571D01*
X24036904Y-139121428D01*
X23236904Y-139121428D01*
X24036904Y-138740476D02*
X23236904Y-138740476D01*
X23236904Y-138550000D01*
X23275000Y-138435714D01*
X23351190Y-138359523D01*
X23427380Y-138321428D01*
X23579761Y-138283333D01*
X23694047Y-138283333D01*
X23846428Y-138321428D01*
X23922619Y-138359523D01*
X23998809Y-138435714D01*
X24036904Y-138550000D01*
X24036904Y-138740476D01*
X43564000Y-139633333D02*
X43597333Y-139533333D01*
X43630666Y-139500000D01*
X43697333Y-139466666D01*
X43797333Y-139466666D01*
X43864000Y-139500000D01*
X43897333Y-139533333D01*
X43930666Y-139600000D01*
X43930666Y-139866666D01*
X43230666Y-139866666D01*
X43230666Y-139633333D01*
X43264000Y-139566666D01*
X43297333Y-139533333D01*
X43364000Y-139500000D01*
X43430666Y-139500000D01*
X43497333Y-139533333D01*
X43530666Y-139566666D01*
X43564000Y-139633333D01*
X43564000Y-139866666D01*
X43230666Y-138833333D02*
X43230666Y-139166666D01*
X43564000Y-139200000D01*
X43530666Y-139166666D01*
X43497333Y-139100000D01*
X43497333Y-138933333D01*
X43530666Y-138866666D01*
X43564000Y-138833333D01*
X43630666Y-138800000D01*
X43797333Y-138800000D01*
X43864000Y-138833333D01*
X43897333Y-138866666D01*
X43930666Y-138933333D01*
X43930666Y-139100000D01*
X43897333Y-139166666D01*
X43864000Y-139200000D01*
X43437000Y-126883333D02*
X43470333Y-126783333D01*
X43503666Y-126750000D01*
X43570333Y-126716666D01*
X43670333Y-126716666D01*
X43737000Y-126750000D01*
X43770333Y-126783333D01*
X43803666Y-126850000D01*
X43803666Y-127116666D01*
X43103666Y-127116666D01*
X43103666Y-126883333D01*
X43137000Y-126816666D01*
X43170333Y-126783333D01*
X43237000Y-126750000D01*
X43303666Y-126750000D01*
X43370333Y-126783333D01*
X43403666Y-126816666D01*
X43437000Y-126883333D01*
X43437000Y-127116666D01*
X43103666Y-126116666D02*
X43103666Y-126250000D01*
X43137000Y-126316666D01*
X43170333Y-126350000D01*
X43270333Y-126416666D01*
X43403666Y-126450000D01*
X43670333Y-126450000D01*
X43737000Y-126416666D01*
X43770333Y-126383333D01*
X43803666Y-126316666D01*
X43803666Y-126183333D01*
X43770333Y-126116666D01*
X43737000Y-126083333D01*
X43670333Y-126050000D01*
X43503666Y-126050000D01*
X43437000Y-126083333D01*
X43403666Y-126116666D01*
X43370333Y-126183333D01*
X43370333Y-126316666D01*
X43403666Y-126383333D01*
X43437000Y-126416666D01*
X43503666Y-126450000D01*
X18956904Y-139940476D02*
X18156904Y-139940476D01*
X18156904Y-139750000D01*
X18195000Y-139635714D01*
X18271190Y-139559523D01*
X18347380Y-139521428D01*
X18499761Y-139483333D01*
X18614047Y-139483333D01*
X18766428Y-139521428D01*
X18842619Y-139559523D01*
X18918809Y-139635714D01*
X18956904Y-139750000D01*
X18956904Y-139940476D01*
X18233095Y-139178571D02*
X18195000Y-139140476D01*
X18156904Y-139064285D01*
X18156904Y-138873809D01*
X18195000Y-138797619D01*
X18233095Y-138759523D01*
X18309285Y-138721428D01*
X18385476Y-138721428D01*
X18499761Y-138759523D01*
X18956904Y-139216666D01*
X18956904Y-138721428D01*
X18195000Y-127259523D02*
X18156904Y-127335714D01*
X18156904Y-127450000D01*
X18195000Y-127564285D01*
X18271190Y-127640476D01*
X18347380Y-127678571D01*
X18499761Y-127716666D01*
X18614047Y-127716666D01*
X18766428Y-127678571D01*
X18842619Y-127640476D01*
X18918809Y-127564285D01*
X18956904Y-127450000D01*
X18956904Y-127373809D01*
X18918809Y-127259523D01*
X18880714Y-127221428D01*
X18614047Y-127221428D01*
X18614047Y-127373809D01*
X18956904Y-126878571D02*
X18156904Y-126878571D01*
X18956904Y-126421428D01*
X18156904Y-126421428D01*
X18956904Y-126040476D02*
X18156904Y-126040476D01*
X18156904Y-125850000D01*
X18195000Y-125735714D01*
X18271190Y-125659523D01*
X18347380Y-125621428D01*
X18499761Y-125583333D01*
X18614047Y-125583333D01*
X18766428Y-125621428D01*
X18842619Y-125659523D01*
X18918809Y-125735714D01*
X18956904Y-125850000D01*
X18956904Y-126040476D01*
X15997857Y-126973809D02*
X16035952Y-126859523D01*
X16074047Y-126821428D01*
X16150238Y-126783333D01*
X16264523Y-126783333D01*
X16340714Y-126821428D01*
X16378809Y-126859523D01*
X16416904Y-126935714D01*
X16416904Y-127240476D01*
X15616904Y-127240476D01*
X15616904Y-126973809D01*
X15655000Y-126897619D01*
X15693095Y-126859523D01*
X15769285Y-126821428D01*
X15845476Y-126821428D01*
X15921666Y-126859523D01*
X15959761Y-126897619D01*
X15997857Y-126973809D01*
X15997857Y-127240476D01*
X15616904Y-126288095D02*
X15616904Y-126211904D01*
X15655000Y-126135714D01*
X15693095Y-126097619D01*
X15769285Y-126059523D01*
X15921666Y-126021428D01*
X16112142Y-126021428D01*
X16264523Y-126059523D01*
X16340714Y-126097619D01*
X16378809Y-126135714D01*
X16416904Y-126211904D01*
X16416904Y-126288095D01*
X16378809Y-126364285D01*
X16340714Y-126402380D01*
X16264523Y-126440476D01*
X16112142Y-126478571D01*
X15921666Y-126478571D01*
X15769285Y-126440476D01*
X15693095Y-126402380D01*
X15655000Y-126364285D01*
X15616904Y-126288095D01*
X43256857Y-130726666D02*
X43256857Y-130993333D01*
X43675904Y-130993333D02*
X42875904Y-130993333D01*
X42875904Y-130612380D01*
X43675904Y-129888571D02*
X43675904Y-130345714D01*
X43675904Y-130117142D02*
X42875904Y-130117142D01*
X42990190Y-130193333D01*
X43066380Y-130269523D01*
X43104476Y-130345714D01*
X43337000Y-128479333D02*
X43337000Y-128712666D01*
X43703666Y-128712666D02*
X43003666Y-128712666D01*
X43003666Y-128379333D01*
X43003666Y-127979333D02*
X43003666Y-127912666D01*
X43037000Y-127846000D01*
X43070333Y-127812666D01*
X43137000Y-127779333D01*
X43270333Y-127746000D01*
X43437000Y-127746000D01*
X43570333Y-127779333D01*
X43637000Y-127812666D01*
X43670333Y-127846000D01*
X43703666Y-127912666D01*
X43703666Y-127979333D01*
X43670333Y-128046000D01*
X43637000Y-128079333D01*
X43570333Y-128112666D01*
X43437000Y-128146000D01*
X43270333Y-128146000D01*
X43137000Y-128112666D01*
X43070333Y-128079333D01*
X43037000Y-128046000D01*
X43003666Y-127979333D01*
X31237857Y-126916666D02*
X31237857Y-127183333D01*
X31656904Y-127183333D02*
X30856904Y-127183333D01*
X30856904Y-126802380D01*
X30856904Y-126154761D02*
X30856904Y-126307142D01*
X30895000Y-126383333D01*
X30933095Y-126421428D01*
X31047380Y-126497619D01*
X31199761Y-126535714D01*
X31504523Y-126535714D01*
X31580714Y-126497619D01*
X31618809Y-126459523D01*
X31656904Y-126383333D01*
X31656904Y-126230952D01*
X31618809Y-126154761D01*
X31580714Y-126116666D01*
X31504523Y-126078571D01*
X31314047Y-126078571D01*
X31237857Y-126116666D01*
X31199761Y-126154761D01*
X31161666Y-126230952D01*
X31161666Y-126383333D01*
X31199761Y-126459523D01*
X31237857Y-126497619D01*
X31314047Y-126535714D01*
X16416904Y-139940476D02*
X15616904Y-139940476D01*
X15616904Y-139750000D01*
X15655000Y-139635714D01*
X15731190Y-139559523D01*
X15807380Y-139521428D01*
X15959761Y-139483333D01*
X16074047Y-139483333D01*
X16226428Y-139521428D01*
X16302619Y-139559523D01*
X16378809Y-139635714D01*
X16416904Y-139750000D01*
X16416904Y-139940476D01*
X15616904Y-139216666D02*
X15616904Y-138721428D01*
X15921666Y-138988095D01*
X15921666Y-138873809D01*
X15959761Y-138797619D01*
X15997857Y-138759523D01*
X16074047Y-138721428D01*
X16264523Y-138721428D01*
X16340714Y-138759523D01*
X16378809Y-138797619D01*
X16416904Y-138873809D01*
X16416904Y-139102380D01*
X16378809Y-139178571D01*
X16340714Y-139216666D01*
X31656904Y-139940476D02*
X30856904Y-139940476D01*
X30856904Y-139750000D01*
X30895000Y-139635714D01*
X30971190Y-139559523D01*
X31047380Y-139521428D01*
X31199761Y-139483333D01*
X31314047Y-139483333D01*
X31466428Y-139521428D01*
X31542619Y-139559523D01*
X31618809Y-139635714D01*
X31656904Y-139750000D01*
X31656904Y-139940476D01*
X31123571Y-138797619D02*
X31656904Y-138797619D01*
X30818809Y-138988095D02*
X31390238Y-139178571D01*
X31390238Y-138683333D01*
X41397857Y-126973809D02*
X41435952Y-126859523D01*
X41474047Y-126821428D01*
X41550238Y-126783333D01*
X41664523Y-126783333D01*
X41740714Y-126821428D01*
X41778809Y-126859523D01*
X41816904Y-126935714D01*
X41816904Y-127240476D01*
X41016904Y-127240476D01*
X41016904Y-126973809D01*
X41055000Y-126897619D01*
X41093095Y-126859523D01*
X41169285Y-126821428D01*
X41245476Y-126821428D01*
X41321666Y-126859523D01*
X41359761Y-126897619D01*
X41397857Y-126973809D01*
X41397857Y-127240476D01*
X41093095Y-126478571D02*
X41055000Y-126440476D01*
X41016904Y-126364285D01*
X41016904Y-126173809D01*
X41055000Y-126097619D01*
X41093095Y-126059523D01*
X41169285Y-126021428D01*
X41245476Y-126021428D01*
X41359761Y-126059523D01*
X41816904Y-126516666D01*
X41816904Y-126021428D01*
D12*
X14785000Y-124110000D02*
X12245000Y-124110000D01*
X45265000Y-139350000D02*
X45265000Y-141890000D01*
X45265000Y-126650000D02*
X45265000Y-124110000D01*
X12245000Y-141890000D02*
X14785000Y-141890000D01*
D11*
%TO.C,J1*%
X122450000Y-45837500D02*
X123950000Y-45837500D01*
X123950000Y-51837500D02*
X122450000Y-51837500D01*
X123950000Y-45837500D02*
X123950000Y-51837500D01*
%TD*%
D13*
%TO.C,J1*%
X122450000Y-48837500D03*
X122450000Y-47087500D03*
X115450000Y-47087500D03*
X115450000Y-48837500D03*
D14*
X112150000Y-49187500D03*
X112150000Y-46737500D03*
X120650000Y-44987500D03*
X120650000Y-50937500D03*
X117650000Y-50937500D03*
X117650000Y-44987500D03*
X113650000Y-50937500D03*
X113650000Y-44987500D03*
%TD*%
M02*
